<svg width="230" height="65" viewBox="0 0 230 65" fill="none" xmlns="http://www.w3.org/2000/svg">
<path fillRule="evenodd" clipRule="evenodd" d="M7.20335 44.0538C9.59904 41.2122 18.2584 33.3125 18.5953 32.1641C18.7205 31.7367 17.533 30.5874 17.2033 29.8677C14.811 24.6496 17.1094 19.4192 21.6637 17.4943C24.9271 16.1141 28.4443 16.5419 30.9935 19.1954C32.7629 21.0385 33.8244 23.7021 33.8244 26.4492C33.8244 27.8645 32.8786 30.1174 31.9924 31.2109C31.099 32.3509 31.045 32.2516 32.5425 33.5508C33.3005 34.2073 35.7682 36.8867 36.2514 36.8867C36.7478 36.8867 38.4537 34.1013 38.6899 33.6955C39.589 31.8594 40.1613 29.9486 40.4181 28.0373C40.7761 25.3733 40.5214 22.7088 39.6828 20.2489C35.5062 7.99156 21.4236 6.11854 12.9499 15.4634C8.9521 19.9877 8.4968 26.5002 10.5885 31.9117C10.8196 32.3694 11.0961 33.1468 10.727 33.5759C9.98318 34.4412 8.04021 36.3907 7.12789 36.8867C3.97808 30.7554 2.94529 23.3741 5.97549 17.0265C8.93667 10.8213 15.464 5.17895 21.8446 4.52647C22.9481 4.41391 22.6146 4.59638 22.6146 0C19.2959 0.077383 14.2421 1.93502 10.6434 4.39764C5.84516 7.68334 2.49341 12.4877 0.86856 17.8513C-1.34107 25.1425 0.628047 39.9846 7.20335 44.0538Z" fill="#2B72EE"/>
<path fillRule="evenodd" clipRule="evenodd" d="M25.9878 0.00177002C49.7711 1.96493 58.2825 33.6656 36.5018 47.6548C34.9725 48.637 33.8403 49.9815 33.8668 48.0672C33.884 46.8409 33.9028 45.6134 33.9209 44.3871C53.0414 29.9657 43.3257 7.1342 27.8167 4.97143C26.9923 4.85624 26.1258 4.73049 26.116 4.35281C26.1108 4.14132 26.1023 3.92764 26.0967 3.71484C26.0607 2.47891 26.0238 1.23946 25.9878 0.0022097V0.00177002Z" fill="#373435"/>
<path fillRule="evenodd" clipRule="evenodd" d="M26.2124 42.0212L27.0068 61.4197L24.3663 65L21.7309 61.4197L22.6411 42.0212H20.4919L21.5059 36.9319H27.2362L28.2462 42.0212H26.2124Z" fill="#373435"/>
<path d="M57.2815 14.2165V39.1198H61.3055V27.8777H70.3245V24.2134H61.3055V17.9876H70.6718V14.2165H57.2815Z" fill="#2B72EE"/>
<path d="M75.1809 27.0238C75.8746 26.4901 77.7828 25.4942 80.0374 25.4942C82.0147 25.4942 83.4372 26.2056 83.4372 28.1978V30.1899C82.4314 29.6206 80.9047 29.0516 78.8237 29.0516C74.8692 29.0516 72.5798 31.0794 72.5798 34.2455C72.5798 37.5897 75.147 39.475 78.1648 39.475C80.2115 39.475 82.4314 38.6212 83.4376 36.8779V39.1193H87.1148V27.4503C87.1148 24.213 84.3049 22.3628 80.4199 22.3628C77.4364 22.3628 75.1123 23.4299 73.6555 24.3194L75.1817 27.023L75.1809 27.0238ZM76.3603 34.0323C76.3603 32.5026 77.3661 31.5776 79.7253 31.5776C81.0784 31.5776 82.2925 31.8264 83.4372 32.3602V32.609C83.4372 35.0994 81.5641 36.5934 79.3438 36.5934C77.6092 36.5934 76.3603 35.6683 76.3603 34.0318V34.0323Z" fill="#2B72EE"/>
<path d="M92.2137 33.7122L90.0281 35.9888C91.4158 37.8385 93.8437 39.6175 97.174 39.6175C100.643 39.6175 102.863 37.5897 102.863 34.4944C102.863 31.5415 100.643 30.4388 97.9719 29.3361C96.0293 28.5535 94.5031 27.9841 94.5031 26.7745C94.5031 25.8494 95.3009 25.3869 96.3762 25.3869C97.9371 25.3869 99.4981 26.312 100.539 27.5571L102.62 25.2805C101.302 23.644 99.0475 22.3989 96.4456 22.3989C93.4969 22.3989 90.9648 23.8929 90.9648 26.8458C90.9648 29.7986 93.3237 31.0438 95.5093 31.8264C97.6255 32.609 99.0823 33.2496 99.0823 34.708C99.0823 35.7751 98.2844 36.4514 96.9313 36.4514C95.3009 36.4514 93.7747 35.4907 92.2137 33.7122Z" fill="#2B72EE"/>
<path d="M103.973 22.755V26.1348H106.679V39.1197H110.356V26.1348H113.027V22.755H110.356V17.0625H106.679V22.755H103.973Z" fill="#2B72EE"/>
<path d="M126.313 14.2165V39.1198H130.407V29.6922H132.904L139.045 39.1198H144.005L137.137 29.2297C140.502 28.1982 142.548 25.5654 142.548 21.9368C142.548 17.2762 139.079 14.2165 133.806 14.2165H126.314H126.313ZM133.633 17.8451C136.443 17.8451 138.316 19.3748 138.316 22.0432C138.316 24.7116 136.443 26.2056 133.633 26.2056H130.407V17.8451H133.633Z" fill="#373435"/>
<path d="M153.579 39.4754C157.256 39.4754 159.892 38.017 161.592 35.0286L158.332 33.7122C157.326 35.4555 155.799 36.3093 153.752 36.3093C151.15 36.3093 149.52 34.7085 149.277 31.8268H161.696C161.696 31.6488 161.731 31.1867 161.731 30.7597C161.731 25.5302 158.782 22.3993 153.752 22.3993C148.688 22.3993 145.427 25.7791 145.427 30.9374C145.427 36.0605 148.653 39.4754 153.579 39.4754ZM153.718 25.3161C155.973 25.3161 157.465 26.8457 157.638 29.1584H149.382C149.833 26.6681 151.324 25.3517 153.718 25.3161Z" fill="#373435"/>
<path d="M167.837 30.9374C167.837 27.9133 169.988 25.7079 172.797 25.7079C175.017 25.7079 177.203 26.8818 178.001 28.4827V24.2134C176.891 23.1107 174.914 22.3989 172.624 22.3989C167.698 22.3989 163.986 25.8855 163.986 30.9369C163.986 35.9532 167.698 39.475 172.624 39.475C174.913 39.475 176.89 38.7992 178.001 37.6253V33.3917C177.203 34.9569 175.122 36.1665 172.797 36.1665C169.988 36.1665 167.837 34.0318 167.837 30.9369V30.9374Z" fill="#373435"/>
<path d="M190.593 26.8462L192.431 23.6089C191.703 22.755 190.628 22.3637 189.482 22.3637C188.129 22.3637 186.777 23.2532 185.84 24.7116V22.755H182.128V39.1198H185.84V29.9055C185.84 27.5576 186.603 25.9924 188.476 25.9924C189.378 25.9924 189.898 26.2768 190.592 26.8462H190.593Z" fill="#373435"/>
<path d="M198.849 32.7163V22.755H194.999V33.1432C194.999 37.0564 196.976 39.4759 200.549 39.4759C202.769 39.4759 204.33 38.4796 205.371 36.5943V39.1202H209.117V22.7554H205.371V32.7168C205.371 34.9226 203.949 36.381 201.833 36.381C199.821 36.381 198.849 35.0646 198.849 32.7168V32.7163Z" fill="#373435"/>
<path d="M213.766 16.2443C213.766 17.5607 214.841 18.5921 216.124 18.5921C217.443 18.5921 218.518 17.5607 218.518 16.2443C218.518 14.9279 217.443 13.8964 216.124 13.8964C214.841 13.8964 213.766 14.9279 213.766 16.2443ZM214.286 22.755V39.1197H217.998V22.755H214.286Z" fill="#373435"/>
<path d="M220.946 22.755V26.1348H223.652V39.1197H227.329V26.1348H230V22.755H227.329V17.0625H223.652V22.755H220.946Z" fill="#373435"/>
<path d="M133.669 52.7845C133.669 51.6237 132.868 50.9203 131.805 50.5747C132.632 50.2291 133.143 49.6118 133.143 48.772C133.143 47.3026 131.765 46.5745 129.875 46.5745H126.501V55.2168H130.098C132.277 55.2168 133.668 54.5005 133.668 52.7845H133.669ZM129.639 48.1916C130.387 48.1916 130.846 48.5003 130.846 49.0806C130.846 49.661 130.387 50.0066 129.639 50.0066H128.72V48.1916H129.639ZM128.72 53.5992V51.4633H129.849C130.702 51.4633 131.372 51.735 131.372 52.4881C131.372 53.3279 130.702 53.5992 129.849 53.5992H128.72Z" fill="#2B72EE"/>
<path d="M144.354 49.5374H142.319L140.888 52.8953L139.457 49.5374H137.278L139.891 54.7599L138.42 57.9326H140.415L144.354 49.5374Z" fill="#2B72EE"/>
<path d="M154.973 50.8952C154.973 49.3027 156.246 48.3644 157.729 48.3644C159.029 48.3644 159.869 48.8951 160.473 49.5001V47.2529C159.724 46.7095 158.937 46.3762 157.598 46.3762C154.644 46.3762 152.557 48.2035 152.557 50.8947C152.557 53.5864 154.644 55.4133 157.598 55.4133C158.937 55.4133 159.724 55.08 160.473 54.5366V52.2898C159.869 52.8948 159.029 53.4255 157.729 53.4255C156.246 53.4255 154.973 52.4873 154.973 50.8943V50.8952Z" fill="#2B72EE"/>
<path d="M165.894 51.2781C166.13 51.13 166.983 50.7967 167.784 50.7967C168.532 50.7967 168.926 51.0807 168.926 51.636V52.1421C168.506 51.9319 167.889 51.7715 167.141 51.7715C165.632 51.7715 164.779 52.4508 164.779 53.5368C164.779 54.7098 165.763 55.3394 166.931 55.3394C167.771 55.3394 168.559 55.0308 168.926 54.4258V55.2159H170.83V51.2157C170.83 50.0426 169.622 49.3761 168.033 49.3761C166.891 49.3761 165.92 49.7217 165.224 50.0303L165.894 51.2773L165.894 51.2781ZM166.773 53.4387C166.773 53.0311 167.062 52.7968 167.758 52.7968C168.178 52.7968 168.572 52.8711 168.926 53.0193C168.874 53.7478 168.283 54.1303 167.64 54.1303C167.154 54.1303 166.773 53.8832 166.773 53.4387Z" fill="#2B72EE"/>
<path d="M175.463 45.5865V55.2168H177.458V45.5865H175.463Z" fill="#2B72EE"/>
<path d="M181.62 49.5375V51.0807H182.381V55.2168H184.284V51.0807H185.741V49.5375H184.284V47.9076C184.284 47.3272 184.52 47.0678 184.914 47.0678C185.151 47.0678 185.348 47.154 185.518 47.3765L186.319 46.006C186.043 45.7589 185.545 45.3887 184.652 45.3887C183.142 45.3887 182.381 46.1665 182.381 47.438V49.537H181.62V49.5375Z" fill="#2B72EE"/>
<path d="M189.706 47.4015C189.706 47.9942 190.218 48.4141 190.861 48.4141C191.504 48.4141 192.016 47.9942 192.016 47.4015C192.016 46.8088 191.504 46.4012 190.861 46.4012C190.218 46.4012 189.706 46.8088 189.706 47.4015ZM189.903 49.5375V55.2168H191.819V49.5375H189.903Z" fill="#2B72EE"/>
<path d="M200.521 51.7596V55.2168H202.582V51.5622C202.582 50.204 201.926 49.4016 200.429 49.4016C199.55 49.4016 198.946 49.7595 198.592 50.3896V49.5375H196.596V55.2168H198.592V51.7596C198.592 51.093 198.999 50.7101 199.642 50.7101C200.285 50.7101 200.521 51.093 200.521 51.7596H200.521Z" fill="#2B72EE"/>
<path d="M207.177 47.4015C207.177 47.9942 207.689 48.4141 208.332 48.4141C208.975 48.4141 209.487 47.9942 209.487 47.4015C209.487 46.8088 208.975 46.4012 208.332 46.4012C207.689 46.4012 207.177 46.8088 207.177 47.4015ZM207.374 49.5375V55.2168H209.29V49.5375H207.374Z" fill="#2B72EE"/>
<path d="M213.359 49.5375V51.0807H214.422V55.2168H216.326V51.0807H217.402V49.5375H216.326V47.562H214.422V49.5375H213.359Z" fill="#2B72EE"/>
<path d="M227.576 49.5374H225.541L224.11 52.8953L222.679 49.5374H220.5L223.113 54.7599L221.642 57.9326H223.638L227.576 49.5374Z" fill="#2B72EE"/>
</svg>
